<?xml version="1.0" standalone="no"?>
<!DOCTYPE svg PUBLIC "-//W3C//DTD SVG 20010904//EN"
 "http://www.w3.org/TR/2001/REC-SVG-20010904/DTD/svg10.dtd">
<svg version="1.0" xmlns="http://www.w3.org/2000/svg"
 width="1000.000000pt" height="1000.000000pt" viewBox="0 0 1000.000000 1000.000000"
 preserveAspectRatio="xMidYMid meet">
<metadata>
Created by potrace 1.11, written by Peter Selinger 2001-2013
</metadata>
<g transform="translate(0.000000,1000.000000) scale(0.100000,-0.100000)"
fill="#000000" stroke="none">
<path d="M1069 8583 c0 -10 -1 -1614 -2 -3566 l-2 -3547 45 -1 c311 -4 7813 0
7817 5 4 4 8 7030 4 7114 -1 9 -794 12 -3931 12 -3736 0 -3930 -1 -3931 -17z
m7721 -53 l75 0 0 -3497 0 -3498 -3867 -2 -3866 -1 0 3499 -1 3498 112 3 c85
2 7169 1 7547 -2z"/>
<path d="M1340 8330 c-5 -3 -8 -1489 -8 -3302 l0 -3296 3666 1 3667 2 0 3300
0 3300 -3658 0 c-2013 0 -3663 -2 -3667 -5z m6260 -3296 l0 -2234 -2600 0
-2600 0 0 2234 0 2234 2600 1 2600 0 0 -2235z"/>
<path d="M3562 6898 c-59 -7 -104 -40 -120 -87 -6 -20 -9 -695 -3 -824 0 -16
15 -43 35 -65 l34 -37 234 -3 c218 -2 235 -1 265 17 50 31 64 70 65 174 0 107
20 157 72 179 36 15 345 19 387 6 14 -5 39 -23 55 -39 l29 -30 0 -1457 c1
-1054 4 -1463 12 -1477 6 -11 23 -31 38 -45 l27 -25 280 0 280 0 34 37 c19 21
35 48 35 60 1 13 2 670 3 1460 1 1435 1 1437 22 1465 39 53 64 59 255 58 152
-1 179 -4 207 -20 48 -29 62 -68 62 -177 0 -75 4 -99 20 -125 35 -59 55 -63
298 -63 212 0 220 1 253 23 20 13 39 37 45 57 8 24 11 163 10 445 -1 456 0
446 -68 481 -30 16 -145 17 -1423 18 -764 1 -1414 -2 -1443 -6z"/>
</g>
</svg>
